<?xml version="1.0" encoding="UTF-8" standalone="no"?>
<!-- Created with Inkscape (http://www.inkscape.org/) -->

<svg
   xmlns:dc="http://purl.org/dc/elements/1.1/"
   xmlns:cc="http://creativecommons.org/ns#"
   xmlns:rdf="http://www.w3.org/1999/02/22-rdf-syntax-ns#"
   xmlns:svg="http://www.w3.org/2000/svg"
   xmlns="http://www.w3.org/2000/svg"
   xmlns:sodipodi="http://sodipodi.sourceforge.net/DTD/sodipodi-0.dtd"
   xmlns:inkscape="http://www.inkscape.org/namespaces/inkscape"
   width="749.14587"
   height="459.93378"
   id="svg3137"
   version="1.1"
   inkscape:version="0.48.5 r10040"
   sodipodi:docname="pathiways-logo.svg">
  <defs
     id="defs3139" />
  <sodipodi:namedview
     id="base"
     pagecolor="#888888"
     bordercolor="#666666"
     borderopacity="1.0"
     inkscape:pageopacity="1"
     inkscape:pageshadow="2"
     inkscape:zoom="1.4"
     inkscape:cx="347.71515"
     inkscape:cy="134.72659"
     inkscape:document-units="px"
     inkscape:current-layer="layer1"
     showgrid="false"
     inkscape:window-width="1871"
     inkscape:window-height="1176"
     inkscape:window-x="49"
     inkscape:window-y="24"
     inkscape:window-maximized="1"
     fit-margin-top="0"
     fit-margin-left="0"
     fit-margin-right="0"
     fit-margin-bottom="0" />
  <metadata
     id="metadata3142">
    <rdf:RDF>
      <cc:Work
         rdf:about="">
        <dc:format>image/svg+xml</dc:format>
        <dc:type
           rdf:resource="http://purl.org/dc/dcmitype/StillImage" />
      </cc:Work>
    </rdf:RDF>
  </metadata>
  <g
     inkscape:label="Layer 1"
     inkscape:groupmode="layer"
     id="layer1"
     transform="translate(11.715809,-42.395293)">
    <path
       sodipodi:type="arc"
       style="fill:#ffffff;fill-opacity:1;fill-rule:evenodd;stroke:#ffffff;stroke-width:1px;stroke-linecap:butt;stroke-linejoin:miter;stroke-opacity:1"
       id="path3011"
       sodipodi:cx="491.42856"
       sodipodi:cy="478.07648"
       sodipodi:rx="57.142857"
       sodipodi:ry="57.142857"
       d="m 548.57141,478.07648 c 0,31.55913 -25.58372,57.14285 -57.14285,57.14285 -31.55913,0 -57.14286,-25.58372 -57.14286,-57.14285 0,-31.55913 25.58373,-57.14286 57.14286,-57.14286 31.55913,0 57.14285,25.58373 57.14285,57.14286 z"
       transform="translate(22.644364,-236.24738)" />
    <path
       sodipodi:type="arc"
       style="fill:#ffffff;fill-opacity:1;fill-rule:evenodd;stroke:#ffffff;stroke-width:1px;stroke-linecap:butt;stroke-linejoin:miter;stroke-opacity:1"
       id="path3016"
       sodipodi:cx="631.42859"
       sodipodi:cy="543.79077"
       sodipodi:rx="20"
       sodipodi:ry="17.142857"
       d="m 651.42859,543.79077 c 0,9.46774 -8.95431,17.14286 -20,17.14286 -11.0457,0 -20,-7.67512 -20,-17.14286 0,-9.46774 8.9543,-17.14286 20,-17.14286 11.04569,0 20,7.67512 20,17.14286 z"
       transform="matrix(0.85894859,0,0,1.0021067,105.99396,-228.82155)" />
    <path
       transform="translate(19.787214,-227.67595)"
       sodipodi:type="arc"
       style="fill:#ffffff;fill-opacity:1;fill-rule:evenodd;stroke:#ffffff;stroke-width:1px;stroke-linecap:butt;stroke-linejoin:miter;stroke-opacity:1"
       id="path3018"
       sodipodi:cx="557.14288"
       sodipodi:cy="352.36218"
       sodipodi:rx="37.142857"
       sodipodi:ry="37.142857"
       d="m 594.28574,352.36218 c 0,20.51344 -16.62942,37.14286 -37.14286,37.14286 -20.51343,0 -37.14285,-16.62942 -37.14285,-37.14286 0,-20.51343 16.62942,-37.14285 37.14285,-37.14285 20.51344,0 37.14286,16.62942 37.14286,37.14285 z" />
    <path
       transform="translate(19.787214,-227.67595)"
       sodipodi:type="arc"
       style="fill:#ffffff;fill-opacity:1;fill-rule:evenodd;stroke:#ffffff;stroke-width:1px;stroke-linecap:butt;stroke-linejoin:miter;stroke-opacity:1"
       id="path3022"
       sodipodi:cx="400"
       sodipodi:cy="312.36218"
       sodipodi:rx="34.285713"
       sodipodi:ry="34.285713"
       d="m 434.28571,312.36218 c 0,18.93548 -15.35023,34.28572 -34.28571,34.28572 -18.93548,0 -34.28571,-15.35024 -34.28571,-34.28572 0,-18.93547 15.35023,-34.28571 34.28571,-34.28571 18.93548,0 34.28571,15.35024 34.28571,34.28571 z" />
    <path
       sodipodi:type="arc"
       style="fill:#ffffff;fill-opacity:1;fill-rule:evenodd;stroke:#ffffff;stroke-width:1px;stroke-linecap:butt;stroke-linejoin:miter;stroke-opacity:1"
       id="path3033"
       sodipodi:cx="415.71429"
       sodipodi:cy="672.36218"
       sodipodi:rx="35.714287"
       sodipodi:ry="34.285713"
       d="m 451.42858,672.36218 a 35.714287,34.285713 0 1 1 -71.42857,0 35.714287,34.285713 0 1 1 71.42857,0 z"
       transform="translate(108.35864,-258.81881)" />
    <path
       transform="translate(13.787214,-231.67595)"
       sodipodi:type="arc"
       style="fill:#ffffff;fill-opacity:1;fill-rule:evenodd;stroke:#ffffff;stroke-width:1px;stroke-linecap:butt;stroke-linejoin:miter;stroke-opacity:1"
       id="path3035"
       sodipodi:cx="397.14285"
       sodipodi:cy="706.64789"
       sodipodi:rx="22.857143"
       sodipodi:ry="22.857143"
       d="m 420,706.64789 a 22.857143,22.857143 0 1 1 -45.71429,0 22.857143,22.857143 0 1 1 45.71429,0 z" />
    <path
       sodipodi:type="arc"
       style="fill:#ffffff;fill-rule:evenodd;stroke:#ffffff;stroke-width:1px;stroke-linecap:butt;stroke-linejoin:miter;stroke-opacity:1"
       id="path3037"
       sodipodi:cx="592.85712"
       sodipodi:cy="700.93359"
       sodipodi:rx="30"
       sodipodi:ry="25.714285"
       d="m 622.85712,700.93359 a 30,25.714285 0 1 1 -60,0 30,25.714285 0 1 1 60,0 z"
       transform="matrix(0.99827209,0,0,1.2202063,17.954484,-388.59739)" />
    <path
       style="fill:#ffffff;stroke:#ffffff;stroke-width:1px;stroke-linecap:butt;stroke-linejoin:miter;stroke-opacity:1"
       d="M 336.34266,356.8468 C 440.99777,326.40167 589.45116,324.79079 644.43918,433.61839 553.7933,333.55475 427.79498,339.74918 302.50255,404.32396 238.65545,433.79186 -23.437207,544.60759 44.408573,403.31381 287.1224,438.24843 427.09651,252.95289 493.92645,48.750272 478.89564,161.0795 414.42977,294.55258 336.34266,356.8468 z"
       id="path4652"
       inkscape:connector-curvature="0" />
  </g>
</svg>
