<?xml version="1.0" encoding="UTF-8" standalone="no"?>
<!-- Created with Inkscape (http://www.inkscape.org/) -->

<svg
   xmlns:dc="http://purl.org/dc/elements/1.1/"
   xmlns:cc="http://creativecommons.org/ns#"
   xmlns:rdf="http://www.w3.org/1999/02/22-rdf-syntax-ns#"
   xmlns:svg="http://www.w3.org/2000/svg"
   xmlns="http://www.w3.org/2000/svg"
   xmlns:sodipodi="http://sodipodi.sourceforge.net/DTD/sodipodi-0.dtd"
   xmlns:inkscape="http://www.inkscape.org/namespaces/inkscape"
   version="1.1"
   width="115.33548"
   height="113.50417"
   id="svg28907"
   inkscape:version="0.48.3.1 r9886"
   sodipodi:docname="pathact.svg">
  <sodipodi:namedview
     pagecolor="#ffffff"
     bordercolor="#666666"
     borderopacity="1"
     objecttolerance="10"
     gridtolerance="10"
     guidetolerance="10"
     inkscape:pageopacity="0"
     inkscape:pageshadow="2"
     inkscape:window-width="640"
     inkscape:window-height="480"
     id="namedview29068"
     showgrid="false"
     fit-margin-top="0"
     fit-margin-left="0"
     fit-margin-right="0"
     fit-margin-bottom="0"
     inkscape:zoom="0.22425739"
     inkscape:cx="-35.707828"
     inkscape:cy="601.8226"
     inkscape:window-x="0"
     inkscape:window-y="0"
     inkscape:window-maximized="0"
     inkscape:current-layer="svg28907" />
  <defs
     id="defs28909">
    <filter
       color-interpolation-filters="sRGB"
       id="filter24869-9-0-9-3-8-1-1-2-9">
      <feGaussianBlur
         id="feGaussianBlur24871-88-8-5-2-9-9-8-6-1"
         stdDeviation="0.82271328" />
    </filter>
    <filter
       color-interpolation-filters="sRGB"
       inkscape:collect="always"
       id="filter24869-9-0-9-3-8-1-1-2-9-3">
      <feGaussianBlur
         inkscape:collect="always"
         stdDeviation="0.82271328"
         id="feGaussianBlur24871-88-8-5-2-9-9-8-6-1-4" />
    </filter>
  </defs>
  <metadata
     id="metadata28912">
    <rdf:RDF>
      <cc:Work
         rdf:about="">
        <dc:format>image/svg+xml</dc:format>
        <dc:type
           rdf:resource="http://purl.org/dc/dcmitype/StillImage" />
        <dc:title />
      </cc:Work>
    </rdf:RDF>
  </metadata>
  <path
     sodipodi:type="arc"
     style="fill:#415058;fill-opacity:1;stroke:none"
     id="path22600-7-2-3-0-6-2-7-5-6-5-6-0-2-7-1-9-2-5"
     sodipodi:cx="99.24749"
     sodipodi:cy="245.75537"
     sodipodi:rx="38.026928"
     sodipodi:ry="38.026928"
     d="m 137.27442,245.75537 a 38.026928,38.026928 0 1 1 -76.053858,0 38.026928,38.026928 0 1 1 76.053858,0 z"
     transform="matrix(1.3345534,-0.66731114,0.66731114,1.3345534,-237.86298,-204.99263)" />
  <g
     id="g24836-35-0-0-7-2-7-9-9-2"
     style="filter:url(#filter24869-9-0-9-3-8-1-1-2-9-3)"
     transform="translate(718.02862,1554.8739)">
    <path
       sodipodi:type="arc"
       style="fill:#ffffff;fill-opacity:1;stroke:none"
       id="path22279-2-9-3-4-1-5-5-8-0-9-6-92-2-72-3-9-2-3-1"
       sodipodi:cx="190.71428"
       sodipodi:cy="403.43362"
       sodipodi:rx="39.642857"
       sodipodi:ry="39.642857"
       d="m 230.35714,403.43362 c 0,21.89415 -17.74872,39.64286 -39.64286,39.64286 -21.89415,0 -39.64286,-17.74871 -39.64286,-39.64286 0,-21.89414 17.74871,-39.64285 39.64286,-39.64285 21.89414,0 39.64286,17.74871 39.64286,39.64285 z"
       transform="matrix(0.40991694,0.1737663,-0.1737663,0.40991694,-666.63113,-1696.0921)" />
    <path
       sodipodi:type="arc"
       style="fill:#ffffff;fill-opacity:1;stroke:none"
       id="path22315-0-4-9-6-47-6-6-7-5-8-2-6-4-5-8-8-4-1-4"
       sodipodi:cx="190.71428"
       sodipodi:cy="403.43362"
       sodipodi:rx="39.642857"
       sodipodi:ry="39.642857"
       d="m 230.35714,403.43362 c 0,21.89415 -17.74872,39.64286 -39.64286,39.64286 -21.89415,0 -39.64286,-17.74871 -39.64286,-39.64286 0,-21.89414 17.74871,-39.64285 39.64286,-39.64285 21.89414,0 39.64286,17.74871 39.64286,39.64285 z"
       transform="matrix(0.32806709,0.14529984,-0.14529984,0.32806709,-696.47087,-1633.5593)" />
    <path
       sodipodi:type="arc"
       style="fill:#ffffff;fill-opacity:1;stroke:none"
       id="path22373-3-0-0-2-3-0-1-4-2-4-9-7-0-0-2-6-5-3-0"
       sodipodi:cx="190.71428"
       sodipodi:cy="403.43362"
       sodipodi:rx="39.642857"
       sodipodi:ry="39.642857"
       d="m 230.35714,403.43362 c 0,21.89415 -17.74872,39.64286 -39.64286,39.64286 -21.89415,0 -39.64286,-17.74871 -39.64286,-39.64286 0,-21.89414 17.74871,-39.64285 39.64286,-39.64285 21.89414,0 39.64286,17.74871 39.64286,39.64285 z"
       transform="matrix(0.35733707,0.01412833,-0.01412833,0.35733707,-690.05294,-1668.0361)" />
    <path
       sodipodi:nodetypes="ccccc"
       inkscape:connector-curvature="0"
       id="rect22712-3-4-3-10-4-5-6-4-0-9-03-6-0-7-3-3-8-0"
       d="m -716.05411,-1460.1416 15.78364,-12.627 6.31345,6.566 -13.76333,14.6473 z"
       style="fill:#ffffff;fill-opacity:1;stroke:none" />
    <rect
       transform="matrix(0.80999273,-0.58643992,0.58643992,0.80999273,0,0)"
       y="-1604.2861"
       x="311.69708"
       height="9.2819176"
       width="20.357147"
       id="rect22712-8-8-7-5-9-6-0-1-5-5-1-7-8-2-8-4-1-3-8"
       style="fill:#ffffff;fill-opacity:1;stroke:none" />
    <rect
       transform="matrix(0.79100191,-0.61181368,0.61181368,0.79100191,0,0)"
       y="-1591.8364"
       x="406.6593"
       height="8.6629725"
       width="20.357147"
       id="rect22712-5-1-6-1-6-6-2-9-8-4-4-4-9-0-8-7-1-6-1"
       style="fill:#ffffff;fill-opacity:1;stroke:none" />
    <path
       sodipodi:nodetypes="ccccc"
       inkscape:connector-curvature="0"
       id="rect22712-9-5-5-5-2-2-5-2-1-4-3-34-4-8-2-6-9-7-8"
       d="m -628.63442,-1528.0935 11.56809,-15.8606 6.88732,4.6446 -11.18929,16.7445 z"
       style="fill:#ffffff;fill-opacity:1;stroke:none" />
  </g>
  <path
     style="fill:none;stroke:#b1b1b1;stroke-width:1px;stroke-linecap:butt;stroke-linejoin:miter;stroke-opacity:1"
     d="m 34.799732,40.678182 23.2142,16.0714 0.5359,26.9643"
     id="path22706-0-47-8-62-3-1-7-4-7-06-5-4-2-4-8-7-2-1"
     inkscape:connector-curvature="0" />
  <path
     style="fill:none;stroke:#b1b1b1;stroke-width:1px;stroke-linecap:butt;stroke-linejoin:miter;stroke-opacity:1"
     d="m 86.228232,58.713882 -28.2143,-1.7857 26.0715,20.5357"
     id="path22708-5-7-1-01-2-5-7-3-7-86-8-8-8-1-3-8-8-7"
     inkscape:connector-curvature="0" />
  <path
     style="fill:none;stroke:#464646;stroke-width:2.79999995;stroke-linecap:round;stroke-linejoin:miter;stroke-miterlimit:4;stroke-opacity:1;stroke-dasharray:none"
     d="m 8.1926218,97.642482 16.9642102,-16.25 34.1072,-24.2857 31.7858,-23.75 13.096888,-20.2922"
     id="path22704-5-2-0-3-9-2-5-4-9-5-9-2-3-0-7-7-8-7"
     inkscape:connector-curvature="0"
     sodipodi:nodetypes="ccccc" />
  <path
     transform="matrix(0.31463334,0.133375,-0.133375,0.31463334,53.274232,-95.074418)"
     d="m 230.35714,403.43362 a 39.642857,39.642857 0 1 1 -79.28572,0 39.642857,39.642857 0 1 1 79.28572,0 z"
     sodipodi:ry="39.642857"
     sodipodi:rx="39.642857"
     sodipodi:cy="403.43362"
     sodipodi:cx="190.71428"
     id="path22279-5-5-4-51-0-5-4-9-9-0-5-8-23-5-1-3-5-0"
     style="fill:#ffc440;fill-opacity:1;stroke:#464646;stroke-width:7.02297926;stroke-miterlimit:4;stroke-opacity:1;stroke-dasharray:none"
     sodipodi:type="arc" />
  <path
     transform="matrix(0.23489644,0.10403486,-0.10403486,0.23489644,22.679132,-33.227418)"
     d="m 230.35714,403.43362 a 39.642857,39.642857 0 1 1 -79.28572,0 39.642857,39.642857 0 1 1 79.28572,0 z"
     sodipodi:ry="39.642857"
     sodipodi:rx="39.642857"
     sodipodi:cy="403.43362"
     sodipodi:cx="190.71428"
     id="path22315-6-9-1-2-4-1-0-0-8-0-6-0-0-2-6-3-0-8"
     style="fill:#ff9500;fill-opacity:1;stroke:#464646;stroke-width:9.34201622;stroke-miterlimit:4;stroke-opacity:1;stroke-dasharray:none"
     sodipodi:type="arc" />
  <path
     transform="matrix(0.1088967,0.04817553,-0.04817553,0.1088967,86.114632,5.8322824)"
     d="m 230.35714,403.43362 a 39.642857,39.642857 0 1 1 -79.28572,0 39.642857,39.642857 0 1 1 79.28572,0 z"
     sodipodi:ry="39.642857"
     sodipodi:rx="39.642857"
     sodipodi:cy="403.43362"
     sodipodi:cx="190.71428"
     id="path22359-3-7-5-0-3-2-0-4-1-58-9-3-4-0-8-5-3-9"
     style="fill:#ffffff;fill-opacity:1;stroke:#b1b1b1;stroke-width:8.39791489;stroke-miterlimit:4;stroke-opacity:1;stroke-dasharray:none"
     sodipodi:type="arc" />
  <path
     transform="matrix(0.16945082,-0.12371696,0.12371696,0.16945082,-50.666468,-6.8081176)"
     d="m 230.35714,403.43362 a 39.642857,39.642857 0 1 1 -79.28572,0 39.642857,39.642857 0 1 1 79.28572,0 z"
     sodipodi:ry="39.642857"
     sodipodi:rx="39.642857"
     sodipodi:cy="403.43362"
     sodipodi:cx="190.71428"
     id="path22361-3-8-8-2-7-9-6-1-7-6-5-9-0-8-4-8-3-5"
     style="fill:#ffffff;fill-opacity:1;stroke:#b1b1b1;stroke-width:4.76625872;stroke-miterlimit:4;stroke-opacity:1;stroke-dasharray:none"
     sodipodi:type="arc" />
  <path
     transform="matrix(0.09307798,0.00542274,-0.00542274,0.09307798,43.361432,45.892982)"
     d="m 230.35714,403.43362 a 39.642857,39.642857 0 1 1 -79.28572,0 39.642857,39.642857 0 1 1 79.28572,0 z"
     sodipodi:ry="39.642857"
     sodipodi:rx="39.642857"
     sodipodi:cy="403.43362"
     sodipodi:cx="190.71428"
     id="path22363-8-6-2-1-2-7-0-8-3-4-7-6-2-1-5-1-4-4"
     style="fill:#ffffff;fill-opacity:1;stroke:#b1b1b1;stroke-width:10.72549248;stroke-miterlimit:4;stroke-opacity:1;stroke-dasharray:none"
     sodipodi:type="arc" />
  <path
     transform="matrix(0.19218343,0.05977609,-0.05977609,0.19218343,72.753332,-10.008118)"
     d="m 230.35714,403.43362 a 39.642857,39.642857 0 1 1 -79.28572,0 39.642857,39.642857 0 1 1 79.28572,0 z"
     sodipodi:ry="39.642857"
     sodipodi:rx="39.642857"
     sodipodi:cy="403.43362"
     sodipodi:cx="190.71428"
     id="path22365-5-6-7-4-1-7-1-0-6-3-8-7-70-1-0-4-5-1"
     style="fill:#ffffff;fill-opacity:1;stroke:#b1b1b1;stroke-width:4.96857071;stroke-miterlimit:4;stroke-opacity:1;stroke-dasharray:none"
     sodipodi:type="arc" />
  <path
     transform="matrix(0.25708417,0.01016455,-0.01016455,0.25708417,45.496132,-71.960918)"
     d="m 230.35714,403.43362 a 39.642857,39.642857 0 1 1 -79.28572,0 39.642857,39.642857 0 1 1 79.28572,0 z"
     sodipodi:ry="39.642857"
     sodipodi:rx="39.642857"
     sodipodi:cy="403.43362"
     sodipodi:cx="190.71428"
     id="path22373-5-7-7-53-1-0-4-2-8-4-1-6-9-5-4-2-5-7"
     style="fill:#fddf9e;fill-opacity:1;stroke:#464646;stroke-width:9.32817554;stroke-miterlimit:4;stroke-opacity:1;stroke-dasharray:none"
     sodipodi:type="arc" />
  <path
     transform="matrix(0.09307798,0.00542274,-0.00542274,0.09307798,-1.9016782,20.769382)"
     d="m 230.35714,403.43362 a 39.642857,39.642857 0 1 1 -79.28572,0 39.642857,39.642857 0 1 1 79.28572,0 z"
     sodipodi:ry="39.642857"
     sodipodi:rx="39.642857"
     sodipodi:cy="403.43362"
     sodipodi:cx="190.71428"
     id="path22363-8-1-8-0-7-4-7-5-0-4-2-0-0-7-8-8-9-7-2"
     style="fill:#ffffff;fill-opacity:1;stroke:#b1b1b1;stroke-width:10.72549248;stroke-miterlimit:4;stroke-opacity:1;stroke-dasharray:none"
     sodipodi:type="arc" />
  <path
     style="fill:#ff5a00;fill-opacity:1;stroke:#464646;stroke-width:1.0700233;stroke-linecap:butt;stroke-linejoin:round;stroke-miterlimit:4;stroke-opacity:1;stroke-dasharray:none"
     d="m 52.387732,36.767282 9.0672,-3.2464 -3.2256,21.4559 18.5914,-34.3914 -11.4545,2.7118 7.7632,-18.1174996 -12.2636,2.4491 z"
     id="path25792-0-8"
     inkscape:connector-curvature="0"
     sodipodi:nodetypes="cccccccc" />
</svg>
